<?xml version="1.0" standalone="no"?>
<!DOCTYPE svg PUBLIC "-//W3C//DTD SVG 20010904//EN"
 "http://www.w3.org/TR/2001/REC-SVG-20010904/DTD/svg10.dtd">
<svg version="1.0" xmlns="http://www.w3.org/2000/svg"
 width="216.000000pt" height="37.000000pt" viewBox="0 0 216.000000 37.000000"
 preserveAspectRatio="xMidYMid meet">

<g transform="translate(0.000000,37.000000) scale(0.100000,-0.100000)"
fill="#000000" stroke="none">
<path d="M285 299 c-24 -21 -35 -39 -33 -53 4 -31 36 -33 47 -3 13 33 30 42
47 25 12 -12 11 -20 -6 -56 -41 -85 -39 -144 7 -160 30 -10 47 -6 78 18 46 35
107 147 107 196 0 40 -8 54 -31 54 -23 0 -31 -27 -24 -79 9 -65 -53 -149 -102
-137 -21 5 -25 12 -25 42 0 20 14 65 31 100 16 35 27 69 24 74 -3 6 -24 10
-45 10 -30 0 -48 -8 -75 -31z"/>
<path d="M819 291 c-29 -30 -40 -64 -16 -56 6 3 18 1 26 -4 11 -7 9 -17 -8
-55 -24 -56 -36 -110 -26 -126 12 -19 43 18 60 71 9 27 21 51 26 54 5 4 9 14
9 23 1 9 12 30 25 47 18 21 33 29 57 30 36 0 45 20 16 39 -14 8 -24 4 -51 -22
-18 -17 -36 -32 -39 -32 -3 0 -11 14 -17 30 -13 38 -25 38 -62 1z"/>
<path d="M1378 312 c-9 -4 -30 -19 -47 -34 -42 -38 -65 -37 -56 2 6 27 4 30
-20 30 -15 0 -47 -16 -73 -36 l-47 -36 -3 31 c-7 66 -94 39 -117 -37 -6 -21
-5 -23 13 -13 12 6 23 11 26 11 13 0 4 -33 -24 -88 -16 -33 -30 -67 -30 -76 0
-33 33 -12 58 36 30 58 122 158 146 158 22 0 17 -21 -31 -117 -34 -68 -39
-110 -11 -101 6 2 32 34 57 70 65 92 131 168 146 168 31 0 23 -36 -25 -120
-27 -48 -50 -92 -50 -98 0 -22 22 -23 62 -2 45 23 77 57 77 80 0 11 -5 9 -18
-7 -11 -13 -26 -23 -35 -23 -20 0 -21 36 -3 47 16 9 67 108 67 128 0 8 -9 19
-19 25 -22 11 -20 11 -43 2z"/>
<path d="M1760 290 c-35 -36 -38 -50 -11 -50 32 0 34 -17 7 -84 -28 -70 -32
-101 -15 -112 17 -10 40 25 72 109 36 95 68 131 108 122 24 -6 29 -3 29 13 0
22 -25 36 -43 26 -7 -4 -22 -16 -34 -27 -13 -12 -29 -17 -39 -13 -9 4 -14 9
-11 13 8 7 -11 33 -25 33 -5 0 -22 -14 -38 -30z"/>
<path d="M1550 272 c-45 -44 -65 -106 -55 -169 5 -33 12 -46 28 -52 29 -11 45
-5 86 33 42 39 61 82 61 138 0 92 -56 115 -120 50z m86 -17 c14 -55 -55 -175
-99 -175 -18 0 -19 5 -14 45 7 51 29 99 60 133 27 29 45 28 53 -3z"/>
<path d="M85 263 c-64 -66 -94 -164 -62 -208 18 -24 80 -13 102 18 21 30 19
44 -4 23 -37 -33 -80 -3 -67 47 9 39 33 57 75 57 51 0 93 33 89 69 -3 23 -8
26 -50 29 -42 3 -49 0 -83 -35z m92 2 c5 -18 -11 -32 -44 -40 -29 -6 -33 -4
-33 14 0 33 67 56 77 26z"/>
<path d="M622 258 c-81 -84 -97 -218 -25 -218 21 0 80 37 87 55 7 20 -11 19
-22 -1 -11 -19 -51 -15 -65 7 -10 16 -5 53 12 78 5 7 28 15 52 17 101 7 139
104 40 104 -30 0 -44 -8 -79 -42z m95 6 c6 -17 -16 -36 -50 -41 -26 -4 -34 27
-12 43 25 19 54 18 62 -2z"/>
<path d="M2015 269 c-49 -43 -87 -126 -79 -171 9 -43 21 -58 49 -58 25 0 85
44 85 62 0 6 -9 3 -19 -6 -11 -10 -30 -16 -43 -14 -18 2 -24 10 -26 36 -5 53
20 82 71 82 54 0 90 29 85 68 -3 24 -8 27 -45 30 -34 3 -47 -2 -78 -29z m83
-10 c2 -11 -8 -21 -29 -28 -41 -14 -39 -14 -39 9 0 36 61 53 68 19z"/>
</g>
</svg>
