<?xml version="1.0" encoding="UTF-8" standalone="no"?>
<!-- Created with Inkscape (http://www.inkscape.org/) -->

<svg
   xmlns:dc="http://purl.org/dc/elements/1.1/"
   xmlns:cc="http://creativecommons.org/ns#"
   xmlns:rdf="http://www.w3.org/1999/02/22-rdf-syntax-ns#"
   xmlns:svg="http://www.w3.org/2000/svg"
   xmlns="http://www.w3.org/2000/svg"
   xmlns:sodipodi="http://sodipodi.sourceforge.net/DTD/sodipodi-0.dtd"
   xmlns:inkscape="http://www.inkscape.org/namespaces/inkscape"
   width="1000"
   height="275.38364"
   viewBox="0 0 264.58333 72.861923"
   version="1.1"
   id="svg8"
   sodipodi:docname="swift.svg"
   inkscape:version="0.92.1 r15371">
  <title
     id="title4765">Reputation - Taylor Swift</title>
  <defs
     id="defs2" />
  <sodipodi:namedview
     id="base"
     pagecolor="#ffffff"
     bordercolor="#666666"
     borderopacity="1.0"
     inkscape:pageopacity="0.0"
     inkscape:pageshadow="2"
     inkscape:zoom="0.51267476"
     inkscape:cx="574.56525"
     inkscape:cy="-110.49781"
     inkscape:document-units="px"
     inkscape:current-layer="layer1"
     showgrid="false"
     units="px"
     inkscape:window-width="1366"
     inkscape:window-height="705"
     inkscape:window-x="-8"
     inkscape:window-y="-8"
     inkscape:window-maximized="1"
     inkscape:snap-global="false"
     fit-margin-top="10"
     fit-margin-right="10"
     fit-margin-bottom="10"
     fit-margin-left="10" />
  <metadata
     id="metadata5">
    <rdf:RDF>
      <cc:Work
         rdf:about="">
        <dc:format>image/svg+xml</dc:format>
        <dc:type
           rdf:resource="http://purl.org/dc/dcmitype/StillImage" />
        <dc:title>Reputation - Taylor Swift</dc:title>
      </cc:Work>
    </rdf:RDF>
  </metadata>
  <g
     inkscape:label="Capa 1"
     inkscape:groupmode="layer"
     id="layer1"
     transform="translate(18.098638,-99.652437)">
    <path
       id="path4702"
       transform="matrix(0.26458334,0,0,0.26458334,-18.098638,99.652437)"
       style="font-style:normal;font-variant:normal;font-weight:normal;font-stretch:normal;font-size:192px;line-height:1.25;font-family:'EngrvrsOldEng Bd BT';-inkscape-font-specification:'EngrvrsOldEng Bd BT';text-align:start;letter-spacing:3.53111124px;word-spacing:0px;text-anchor:start;opacity:1;fill:#000000;fill-opacity:1;stroke:none;stroke-width:1.15576923"
       d="m 729.27148,38.568359 c -6.36559,6.119244 -12.77847,12.213976 -21.24023,17.285157 l 2.30469,3.90039 c 0.85678,-0.866834 4.30468,-3.474609 4.30468,-3.474609 9.90996,11.216504 26.2906,12.218134 34.06055,-6.4375 -10.40814,1.337575 -14.31009,-2.53997 -19.42969,-11.273438 z m -243.28906,0.261719 c -9.04686,7.638047 -18.38551,14.839471 -30.41601,18.001953 0.3273,8.948032 0.4785,16.010147 0.42578,27.894531 -6.35259,-0.183685 -12.7185,-0.490616 -19.33399,-2.777343 0.53847,6.075628 0.53305,12.421864 0,19.033201 4.54535,-2.568452 11.31258,-3.767909 19.33399,-4.197264 0,26.201764 -0.5,91.792974 -0.5,91.792964 11.5954,2.44918 17.47747,7.55793 21.62304,13.99805 6.97743,-7.55573 15.12443,-15.11025 25.83985,-22.66601 l -2.60742,-3.60157 -5.70313,4.70508 c -4.65403,-7.32355 -10.25113,-9.53941 -15.96094,-11.58398 V 96.785156 c 7.67426,0.611792 14.64069,1.739102 19.38672,4.480464 -1.06624,-6.534231 -1.07678,-13.067284 0,-19.601558 -5.31719,1.910249 -11.65993,3.027767 -19.38672,3.0625 v -9.107421 c 0,-19.119685 5.53724,-29.942051 8.69727,-34.951172 z m 186.10352,0 c -9.04687,7.638047 -18.38353,14.839471 -30.41406,18.001953 0.3273,8.948032 0.47846,16.010147 0.42578,27.894531 -6.35263,-0.183685 -12.72041,-0.490616 -19.33594,-2.777343 0.53847,6.075628 0.5331,12.421864 0,19.033201 4.54537,-2.568452 11.31449,-3.767909 19.33594,-4.197264 0,26.201764 -0.5,91.792974 -0.5,91.792964 11.59544,2.44918 17.47552,7.55793 21.62109,13.99805 6.97739,-7.55573 15.12439,-15.11025 25.83984,-22.66601 l -2.60547,-3.60157 -5.70312,4.70508 c -4.654,-7.32355 -10.25109,-9.53941 -15.96094,-11.58398 V 96.785156 c 7.6743,0.611792 14.63679,1.739102 19.38282,4.480464 -1.06625,-6.534231 -1.07675,-13.067284 0,-19.601558 -5.31716,1.910249 -11.65595,3.027767 -19.38282,3.0625 v -9.107421 c 0,-19.119685 5.53724,-29.942051 8.69727,-34.951172 z m -88.12696,33.988281 c -13.90669,16.620359 -27.82017,33.531051 -40.68164,0.501953 -7.3257,6.505588 -13.06147,14.850199 -25.15429,15.835938 l 24.55078,30.83789 c -11.51399,7.14754 -24.3171,15.33342 -24.90625,36.05078 -0.58915,20.71737 16.41112,31.13874 33.24219,36.08399 l 22.02343,-20.77539 c 2.83019,9.34397 9.50521,16.35443 19.83594,21.14453 5.93322,-7.50482 12.2687,-14.80833 18.73438,-22.04688 -14.24542,0 -17.63477,-5.75432 -17.63477,-18.08008 V 98.464844 c 6.98623,-4.118022 8.66229,-8.235456 11.01758,-12.353516 -9.01259,2.055194 -17.54791,2.568575 -21.02735,-13.292969 z m -305.51367,1.132813 -41.81445,34.187498 c 0,-13.444496 -2.01204,-25.556795 -14.21484,-34.048826 -3.44648,6.129486 -11.24758,14.123596 -24.9043,24.628906 13.29753,2.03573 17.05469,8.86454 17.05469,18.14453 v 96.44336 c 0,8.21926 -0.37935,17.50517 -1.92383,28.06445 9.9811,-4.55316 19.60884,-8.57691 28.05273,-10.82421 -3.78264,-5.00962 -4.06445,-10.73103 -4.06445,-16.06836 v -27.41797 c 4.88914,2.07004 8.30899,5.39746 11.41016,9 14.55511,-11.81273 31.91472,-15.85604 51.20898,-14.54493 -4.83338,-8.61966 -6.05664,-20.50549 -6.05664,-29.38281 v -51.26758 c 4.96713,-2.456235 7.77456,-6.764112 10.21875,-11.382808 -14.35914,2.462778 -19.79114,-6.371754 -24.9668,-15.53125 z m 564.1875,0.339844 c -21.6946,15.01799 -44.7888,20.792062 -69.16211,18.130859 3.97399,6.518853 5.39015,13.686475 5.35157,21.746095 v 53.01953 c 0,0.44126 -0.10773,0.91898 -0.92188,1.20898 v 17.8418 c 7.03113,1.04088 14.39156,5.57629 19.31836,12.41992 19.24766,-14.37524 40.40593,-22.20962 65.26563,-17.34375 -2.48331,-6.1562 -5.06836,-14.77847 -5.06836,-21.32812 v -58.57422 c 6.16864,-3.511938 7.54037,-7.393881 10.52929,-11.150391 -19.05743,-0.103559 -21.5468,-8.350685 -25.3125,-15.970703 z m -677.9082,0.238281 c -12.83367,11.366627 -32.06497,17.085942 -57.30273,17.507812 4.79941,6.615194 5.83398,13.782371 5.83398,22.130861 l 0.68359,72.45312 c 17.03587,1.22419 28.67347,6.12145 36.59571,13.54297 l 27.82617,-22.9082 -2.10156,-4.33594 -7.41407,5.99219 c -6.56769,-4.94355 -17.35173,-8.54759 -31.94531,-10.9375 V 152.74219 L 190.0625,117.01172 C 178.57679,104.5609 170.69071,90.687004 164.72461,74.529297 Z M 34.261719,75.212891 C 28.054501,85.126365 19.854835,93.246263 10,99.876953 c 5.20972,0.390577 9.598234,0.736367 11.869141,3.626957 2.33769,2.81242 4.443359,7.26571 4.443359,13.35937 v 51.89453 c 0,0.96794 -0.291046,1.4392 -1.029297,1.60157 v 13.49804 c 6.770821,2.0287 14.289272,8.7179 17.875,14.80078 7.929552,-8.75709 16.341967,-15.20012 27.546875,-21.63476 l -3.357422,-3.32422 -4.835937,3.71875 c -3.719703,-4.32522 -6.941922,-5.98072 -13.492188,-7.36524 v -59.65429 l 8.3125,-11.474612 c 4.476868,6.399312 9.954833,9.069402 16.029297,8.726562 10.314147,-0.58212 16.64741,-10.463546 17.533203,-21.265624 -10.46522,6.392201 -15.002828,-0.01184 -20.283203,-11.171875 L 49.019531,103.74023 c 0,-12.828128 -5.315348,-22.275887 -14.757812,-28.527339 z m 300.716801,0.283203 c -5.26122,6.742866 -11.22155,14.027262 -20.32422,21.730468 12.12522,1.737298 17.29297,3.111828 17.29297,20.808598 v 59.33789 c 8.57715,0.6483 14.59435,6.41683 19.27539,14.85742 l 33.71679,-29.97852 c 0,16.80703 4.2665,24.70028 12.78907,31.35157 5.99388,-8.51808 12.81731,-16.76035 24.59765,-23.34961 -8.29801,-0.84953 -16.45312,-2.39058 -16.45312,-13.54688 v -53.8457 c 6.52584,-2.48954 10.81898,-6.734106 13.93554,-11.902346 -10.34649,-1.293241 -20.1231,-4.492358 -27.5664,-15.46289 -2.07166,4.000252 -7.05529,9.703249 -24.8418,22.890625 l 2.35742,3.123051 4.34375,-3.451176 c 2.9345,2.447886 6.44059,4.417606 10.83789,5.646486 v 54.10742 l -18.8457,16.45898 c -3.14627,-4.39143 -7.23044,-8.15827 -12.57227,-11.08593 v -52.65039 c 0.0197,-16.772678 0.1622,-29.969775 -18.54296,-35.039066 z M 729.7793,75.697266 C 724.87396,83.048069 700.56933,99 699.90625,99 l 2.19336,3.47461 5.82031,-3.97461 c 2.65085,2.99649 5.25055,6.05229 9.72656,6.96289 v 60.26758 c 0.11528,12.42667 3.52412,25.4671 19.85157,31.99219 5.8066,-8.53656 13.27893,-15.64739 20.93164,-22.60157 -10.87291,-0.34204 -17.94141,-2.18715 -17.94141,-18.41406 v -53.02734 c 10.85269,-4.913124 10.90264,-11.676624 12.82227,-18.121096 -10.30591,5.410167 -17.50442,0.775018 -23.53125,-9.861328 z m 231.8457,0.101562 -43.23828,34.427732 c 0,-26.603033 -6.39706,-30.901294 -15.31641,-34.093748 -2.76468,5.282948 -5.8356,10.709322 -23.40039,22.957032 7.66228,1.727396 16.69141,0.247315 16.69141,17.773436 v 65.87305 c 7.64961,2.82656 12.22607,8.7235 16.83789,14.58789 4.95163,-6.70122 10.17551,-13.2997 22.10351,-17.38477 -3.71758,-5.83672 -9.64254,-9.46725 -16.91601,-11.74804 v -50.82227 l 23.5039,-18.978515 c 1.84766,3.438125 4.67174,6.293215 8.74415,8.396485 v 56.36523 c 0,20.8218 2.52622,27.7977 18.88281,33.86524 6.82722,-8.31927 13.65519,-15.5748 20.48242,-22.11524 -10.59704,-1.40326 -17.10352,-4.1972 -17.10352,-19.48437 v -53.19922 c 6.0799,-2.891414 7.75886,-7.669336 11.01368,-11.771484 C 969.28705,91.895845 965.37089,83.922204 961.625,75.798828 Z M 144.16992,90.259766 c 7.16486,12.676804 14.68823,25.173954 22.36719,37.593754 l -29.63672,18.91406 V 92.310547 c 0,0 3.66443,-0.668381 7.26953,-2.050781 z m 671.9668,1.84375 c 4.59927,6.834633 10.49467,11.821604 18.83594,13.310544 v 71.17969 l -15.67578,3.41602 c -3.4184,-6.42777 -9.59222,-10.86354 -17.83008,-13.81055 V 95.652344 c 5.04389,-0.876246 9.8926,-2.139443 14.66992,-3.548828 z m -289.39649,1.857422 c 12.67435,9.809122 24.22374,6.367222 35.57422,0.554687 3.7321,6.183915 7.121,8.921065 10.31836,9.757815 v 62.51172 l -8.31836,6.32812 c -22.65267,-4.81103 -33.94485,-23.16381 -18.73437,-49.48633 l 15.12695,18.29883 3.00781,-3.3164 z m -267.13085,2.220703 c 2.83916,4.321849 6.81054,7.133489 11.18945,9.402339 v 73.6504 l -7.58985,3.05664 c -5.08335,-7.04954 -9.4793,-14.2708 -26.57812,-18.31641 V 114.29688 Z M 191.28516,262.24219 v 3.14062 h 617.42968 v -3.14062 z" />
  </g>
</svg>
