<?xml version="1.0" encoding="UTF-8"?>
<svg width="622.61" height="216.55" version="1.1" viewBox="0 0 164.73 57.295" xmlns="http://www.w3.org/2000/svg">
 <g transform="translate(63.718 -66.147)">
  <g transform="matrix(.99396 -.0012296 .0012148 1.0061 0 0)" fill="#494e48" stroke-width=".26458">
   <path d="m-62.957 117.35q0-0.29147 0.053-0.39746 0.0265-0.10599 0.26498-0.42396 0.18548-0.23848 0.55645-0.55645 0.18548-0.15898 0.37096-0.34447 0.05299 0 0.34447-0.0265 0.26498-0.0265 0.42396-0.0265 0.79492 0 1.2984 0.39746 0.50345 0.42396 0.98041 0.92741 0.47696 0.50346 1.0599 0.90092 0.58294 0.42396 1.5369 0.42396h0.76843q0.07949-0.0265 0.26498-0.15899 0.15898-0.10599 0.34447-0.23847 0.18548-0.10599 0.34447-0.23848 0.15899-0.10599 0.18548-0.13249 0-0.053 0.15898-0.10599 0.15898-0.0265 0.21198-0.0265 0.45046-0.21198 0.74193-0.47695 0.29147-0.26498 0.52995-0.58295 0.21198-0.31797 0.42396-0.66244 0.18548-0.34446 0.45046-0.71543 0.053-0.0265 0.18548-0.15898 0.10599-0.13249 0.23848-0.29148 0.10599-0.13248 0.21198-0.29147 0.10599-0.13249 0.15898-0.18548 0.05299-0.0265 0.10599-0.15899 0.0265-0.10599 0.0265-0.15898 0.52995-1.3249 1.1129-2.5438 0.58294-1.1924 1.1394-2.4378 0.053-0.10599 0.15898-0.39747 0.10599-0.26497 0.21198-0.58294 0.13249-0.31797 0.21198-0.60944 0.10599-0.29148 0.13249-0.42396 0-0.0265 0.0265-0.15899 0.0265-0.15898 0.05299-0.31797 0.0265-0.15898 0.053-0.29147 0.053-0.13249 0.053-0.15899 0.0265-0.0795 0.13249-0.34446 0.10599-0.26498 0.21198-0.55645 0.13249-0.31797 0.23848-0.58295 0.13249-0.26497 0.15898-0.34446 0-0.053 0.07949-0.26498 0.10599-0.23848 0.10599-0.29147 0-0.0795 0.07949-0.21198l0.10599-0.15899 0.31797-0.31797q0.15898-0.29147 0.26498-0.58294 0.10599-0.29147 0.21198-0.55645 0.10599-0.29147 0.23848-0.55645 0.15898-0.29147 0.42396-0.55645 0.0265-0.15898 0.13249-0.52995 0.10599-0.39746 0.21198-0.82142 0.13249-0.45046 0.21198-0.84792 0.10599-0.39746 0.13249-0.55645 0.053-0.053 0.15898-0.31797 0.13249-0.26498 0.23848-0.58295 0.13249-0.31797 0.23848-0.58294t0.15898-0.34447q0 0 0.0265-0.10599t0.05299-0.21198q0.0265-0.13249 0.0265-0.23848 0.0265-0.13249 0.0265-0.15898 0.23848-0.68894 0.58295-1.3514 0.34447-0.68894 0.55645-1.4044 0.13249-0.47696 0.13249-0.84792 0.0265-0.39746 0.23848-0.84792 0.0265-0.0265 0.10599-0.13249 0.07949-0.13249 0.15898-0.29147 0.10599-0.15898 0.18548-0.29147 0.07949-0.15898 0.10599-0.21198 0.0265-0.0265 0.053-0.07949 0.05299-0.05299 0.07949-0.10599 0.0265-0.07949 0.05299-0.13249v-1.2719q-0.26498-0.37096-0.68894-0.42396-0.39746-0.07949-0.87442-0.07949h-0.79493q-0.15898 0-0.31797 0-0.13249 0-0.26498-0.053-0.053 0-0.15898-0.05299-0.10599-0.05299-0.23848-0.13249-0.10599-0.07949-0.21198-0.13249-0.10599-0.05299-0.13249-0.05299-0.52995-0.18548-0.84792-0.31797-0.29147-0.13249-0.29147-0.74193 0-0.05299 0-0.10599 0-0.07949 0.0265-0.13249 0-0.07949 0.0265-0.15898 0.0265-0.07949 0.13249-0.21198 0.13249-0.13249 0.26498-0.29147 0.13249-0.15898 0.26498-0.26498 0.15898-0.13249 0.23848-0.15898 0.15898 0 0.55645-0.0265t0.82142-0.053q0.45046-0.0265 0.84792-0.05299 0.39746-0.0265 0.52995-0.05299 0.52995-0.053 1.0069-0.23848 0.47696-0.18548 0.82142-0.66244 0.07949-0.10599 0.26498-0.39746 0.18548-0.29147 0.37097-0.60944 0.21198-0.31797 0.39746-0.60944 0.18548-0.29147 0.26498-0.42396 0.37096-0.68894 0.58295-1.3514 0.21198-0.68894 0.50345-1.3779 0.053-0.07949 0.10599-0.21198 0.053-0.13249 0.13249-0.15898 0-0.0265 0.05299-0.13249 0.07949-0.13249 0.15898-0.23848 0.10599-0.13249 0.18548-0.23848 0.07949-0.13249 0.10599-0.18548 0.0265-0.0265 0.10599-0.23848 0.07949-0.21198 0.15898-0.45046 0.10599-0.23848 0.18548-0.45046 0.07949-0.21198 0.10599-0.26498 0-0.05299 0.053-0.18548 0.07949-0.15898 0.13249-0.23848 0.10599-0.13249 0.26498-0.39746 0.18548-0.26498 0.34447-0.52995 0.18548-0.26498 0.31797-0.45046 0.13249-0.21198 0.15898-0.21198 0.47696-0.50345 1.0069-0.90092 0.55645-0.39746 1.1394-0.71543 0.60944-0.34447 1.2189-0.66244 0.63594-0.34447 1.2189-0.71543 0.05299 0 0.18548-0.13249 0.15898-0.13249 0.23848-0.18548 0-0.05299 0.13249-0.10599 0.13249-0.07949 0.18548-0.07949 0.13249 0 0.45046 0 0.31797-0.0265 0.66244-0.0265 0.34447 0 0.63594 0 0.31797-0.0265 0.45046-0.0265 1.0864 0 2.0403 0.07949 0.98041 0.053 1.8548 0.29147 0.90092 0.23848 1.6958 0.71543 0.79492 0.47696 1.5634 1.2984 0.0265 0.07949 0.10599 0.21198 0.10599 0.13249 0.18548 0.29147 0.10599 0.15898 0.15898 0.31797 0.07949 0.13249 0.07949 0.23848 0 0.90092-0.39746 1.6163-0.39746 0.68894-1.4309 0.68894-0.31797 0-0.47696-0.10599-0.13249-0.13249-0.23848-0.31797-0.07949-0.21198-0.15898-0.42396-0.05299-0.23848-0.18548-0.45046-0.60944-0.71543-1.1924-1.1924-0.55645-0.50345-1.4574-0.50345-0.68894 0-1.1924 0.29147-0.47696 0.29147-1.1394 0.50345-0.71543 0.23848-1.4044 0.52995-0.66244 0.29147-1.3514 0.74193-0.05299 0.05299-0.18548 0.15898-0.10599 0.10599-0.18548 0.15898-0.10599 0.15898-0.31797 0.50345-0.21198 0.31797-0.45046 0.66244-0.21198 0.34447-0.42396 0.66244-0.18548 0.31797-0.26498 0.42396-0.37097 0.66244-0.55645 1.1924-0.15898 0.52995-0.37096 1.1394-0.21198 0.76843-0.50345 1.4309-0.29147 0.63594-0.58294 1.3249v0.23848q0.0265 0.10599 0.15898 0.37096 0.13249 0.26498 0.21198 0.31797 0.05299 0.13249 0.18548 0.29147 0.13249 0.15899 0.15898 0.15899h3.8686q0.18548 0 0.37096 0.21198 0.21198 0.21198 0.37096 0.50345 0.18548 0.26498 0.29147 0.55645 0.10599 0.26498 0.10599 0.42396 0 1.2984-1.3249 1.7488-0.21198 0-0.76843-0.0265-0.55645-0.0265-1.1659-0.0265-0.60944 0-1.1394 0.0265-0.52995 0.0265-0.74193 0.0265-0.10599 0-0.52995 0.07949-0.42396 0.05299-0.60944 0.10599-0.63594 0.13249-1.1659 0.71543-0.52995 0.55645-0.95391 1.3249-0.39746 0.74193-0.66244 1.5369t-0.34447 1.3514v1.0599q-0.13249 0.55645-0.31797 1.0599-0.15898 0.47696-0.37096 0.95391-0.18548 0.45046-0.39746 0.92741-0.21198 0.45046-0.37096 0.95391 0 0.10599-0.10599 0.37096-0.07949 0.26498-0.07949 0.31797 0 0.07949-0.0265 0.31797-0.0265 0.21198-0.05299 0.47696-0.0265 0.23848-0.053 0.45046-0.0265 0.21198-0.05299 0.26497-0.0265 0.053-0.13249 0.21198-0.10599 0.15899-0.23848 0.34447-0.13249 0.18548-0.23848 0.34447-0.10599 0.15898-0.13249 0.21198-0.15898 0.34447-0.26498 0.66244-0.07949 0.31797-0.15898 0.66244-0.05299 0.34446-0.13249 0.68893-0.053 0.34447-0.15898 0.74193-0.31797 0.90092-0.79492 1.7753-0.47696 0.84792-0.90092 1.6958-0.37096 0.76843-0.63594 1.5634-0.26498 0.82142-0.60944 1.5898-0.34447 0.74193-0.52995 1.5104-0.18548 0.79492-0.55645 1.5634-0.0265 0.053-0.13249 0.18548-0.07949 0.15899-0.21198 0.31797-0.10599 0.18548-0.21198 0.34447-0.10599 0.18548-0.18548 0.26497-0.66244 0.90092-1.2189 1.8283-0.55645 0.92742-1.2189 1.8283l-0.053 0.10599q-0.05299 0.0795-0.07949 0.0795-0.76843 0.68894-1.4839 1.1394-0.74193 0.45045-1.5104 0.71543-0.79492 0.29147-1.6693 0.39746-0.87442 0.13249-1.9343 0.13249h-0.18548q-0.42396-0.0265-1.0864-0.053-0.66244-0.0265-1.2984-0.053-0.63594-0.0265-1.1129-0.053-0.50345-0.0265-0.58294-0.0265-0.63594-0.053-1.0864-0.34447-0.47696-0.29147-0.82142-0.74193-0.34447-0.42396-0.58294-0.95391-0.23848-0.52995-0.39746-1.0599-0.053-0.10599-0.10599-0.18548-0.07949-0.10599-0.07949-0.18549z"/>
   <path d="m-26.46 100.52v2.7557q0 0.13249 0.15898 0.18549t0.34447 0.10599q0.21198 0.0265 0.39746 0.0265 0.21198 0 0.29147 0 0.58294 0 1.0599-0.21198 0.47696-0.23847 0.84792-0.58294 0.39746-0.37097 0.71543-0.82142 0.31797-0.47696 0.58294-0.95392l0.18548-0.31797q0.63594-0.76842 1.3514-1.5104 0.74193-0.74193 1.1924-1.6428 0.0265-0.053 0.23848-0.50345 0.21198-0.47696 0.47696-1.0864 0.26498-0.60944 0.52995-1.2189 0.29147-0.63594 0.45046-1.0334 0.053-0.07949 0.10599-0.29147 0.05299-0.21198 0.05299-0.26498v-1.6958q0-0.0265 0.05299-0.23848 0.05299-0.21198 0.13249-0.45046 0.07949-0.26498 0.13249-0.47696 0.05299-0.21198 0.05299-0.26498 0.0265-0.0265 0.0265-0.18548 0-0.15898 0-0.26498 0-0.31797-0.10599-0.74193-0.07949-0.45046-0.29147-0.84792-0.18548-0.39746-0.50345-0.66244-0.29147-0.26498-0.68894-0.26498-0.15898 0-0.39746 0.10599-0.21198 0.10599-0.42396 0.26498-0.21198 0.15898-0.42396 0.31797t-0.31797 0.26498q-0.13249 0.15898-0.52995 0.55645-0.39746 0.37097-0.84792 0.82142-0.42396 0.42396-0.82142 0.82142t-0.55645 0.55645q-0.18548 0.42396-0.31797 0.95391-0.13249 0.50345-0.42396 0.87442 0 0.053-0.13249 0.18548-0.10599 0.13249-0.23848 0.29147-0.10599 0.13249-0.23848 0.29147-0.10599 0.13249-0.10599 0.15898-0.0265 0.053-0.10599 0.15898-0.05299 0.07949-0.10599 0.15898l-0.15898 0.21198q-0.34447 0.76843-0.45046 1.5634-0.07949 0.79492-0.29147 1.5634 0 0.07949-0.15898 0.37096-0.15898 0.29147-0.15898 0.42396-0.053 0.05299-0.13249 0.26498-0.05299 0.18548-0.10599 0.23848-0.10599 0.52995-0.13249 1.0334 0 0.47696-0.21198 1.0069zm-3.4977-1.4044q0-0.74193 0.13249-1.4309 0.13249-0.71543 0.29147-1.3779 0.15898-0.68894 0.29147-1.3779 0.15898-0.68894 0.21198-1.4044 0.66244-1.4574 1.3779-2.8087 0.71543-1.3779 1.5898-2.5703t1.9873-2.1728q1.1129-0.98041 2.5968-1.6693 0.0265-0.0265 0.23848-0.13249 0.21198-0.10599 0.45046-0.21198 0.23848-0.13249 0.45046-0.23848t0.29147-0.10599q0.05299-0.05299 0.39746-0.05299 0.34447 0 0.50345 0 1.1924 0 2.0138 0.23848 0.84792 0.23848 1.4309 0.76843 0.58295 0.50345 0.98041 1.2984 0.42396 0.79493 0.76843 1.9078 0.0265 0.13249 0.07949 0.37096 0.05299 0.21198 0.10599 0.42396 0.05299 0.21198 0.07949 0.37097 0.05299 0.15898 0.05299 0.18548 0.0265 0.05299 0.053 0.23848 0.0265 0.18548 0.05299 0.39746 0.05299 0.21198 0.07949 0.39746t0.053 0.23848q0 0.053 0.07949 0.29147 0.10599 0.21198 0.10599 0.26498 0 0.0265-0.0265 0.15898-0.0265 0.13249-0.07949 0.29147-0.0265 0.15898-0.053 0.29147-0.0265 0.13249-0.0265 0.15898-0.13249 0.68894-0.13249 1.3779t-0.10599 1.3779q0 0.05299-0.10599 0.21198-0.05299 0.07949-0.07949 0.15898-0.29147 0.84792-0.47696 1.5369-0.15898 0.66244-0.45046 1.5899 0 0.053-0.0265 0.15898-0.0265 0.07949-0.05299 0.15898l-0.053 0.21198q-0.0265 0.053-0.10599 0.15898-0.05299 0.10599-0.10599 0.23848-0.053 0.10599-0.10599 0.21198-0.053 0.10599-0.053 0.13249-0.0265 0.07949-0.10599 0.39746-0.05299 0.29147-0.10599 0.34447-0.053 0.0795-0.23848 0.26497-0.15898 0.18549-0.39746 0.39747-0.21198 0.21198-0.39746 0.39746-0.18548 0.18548-0.21198 0.26497-0.05299 0-0.21198 0.23848-0.15898 0.21198-0.18548 0.26498-0.07949 0.0795-0.34447 0.37096-0.26498 0.26498-0.58294 0.58295-0.31797 0.29147-0.58295 0.55645-0.26498 0.23847-0.34447 0.31797 0 0.053-0.15898 0.29147-0.13249 0.23848-0.21198 0.31797-0.34447 0.37096-0.66244 0.68893-0.29147 0.29148-0.60944 0.55645-0.31797 0.26498-0.68894 0.55645-0.34447 0.26497-0.76843 0.58294-0.37096 0.23848-0.84792 0.31797-0.47696 0.053-0.95391 0.053h-2.4113q-0.26498-0.13249-0.71543-0.42396-0.45046-0.29147-0.92741-0.63594-0.45046-0.37097-0.82142-0.71543-0.37096-0.37097-0.47696-0.66244-0.0265-0.0265-0.05299-0.15899-0.0265-0.15898-0.05299-0.34446-0.0265-0.21198-0.05299-0.37097-0.0265-0.18548-0.0265-0.23848-0.23848-1.1129-0.39746-2.2258-0.15898-1.1129-0.15898-2.2523z"/>
   <path d="m-11.823 106.22v-0.63594q0-0.053 0.10599-0.21198 0.07949-0.15899 0.07949-0.21198 0.0265-0.0265 0.053-0.13249 0-0.13249 0.0265-0.29147 0.0265-0.15899 0.053-0.29148 0-0.13248 0-0.18548 0.07949-0.26497 0.26498-0.52995 0.18548-0.26497 0.37097-0.50345 0.21198-0.26498 0.39746-0.50345 0.18548-0.23848 0.31797-0.50346 0-0.053 0.053-0.18548 0.07949-0.15898 0.13249-0.31797 0.052995-0.18548 0.10599-0.31797 0.052995-0.15899 0.052995-0.21198 0.026498-0.053 0.052995-0.26498t0.052995-0.42396q0.026498-0.23847 0.026498-0.42396 0.026497-0.18548 0.026497-0.23847 0.052995-0.07949 0.21198-0.39746 0.18548-0.31797 0.37097-0.68894 0.18548-0.37096 0.34447-0.68894 0.15898-0.34447 0.21198-0.42396 0-0.0265 0.052995-0.15898 0.052995-0.13249 0.10599-0.29147 0.079493-0.18548 0.13249-0.34447 0.052995-0.15898 0.079493-0.23848 0.18548-0.74193 0.26498-1.2189 0.079492-0.47696 0.45046-1.0334 0.026498-0.05299 0.13249-0.18548 0.10599-0.13249 0.23848-0.29147 0.13249-0.15898 0.23848-0.26498 0.10599-0.13249 0.13249-0.18548 0.34447-0.52995 0.42396-1.2189 0.10599-0.71543 0.37097-1.3514 0-0.05299 0.052995-0.26498 0.079492-0.21198 0.15899-0.45046 0.10599-0.26498 0.18548-0.47696 0.079493-0.21198 0.10599-0.26498 0.026497-0.05299 0.079492-0.26498 0.079492-0.23848 0.079492-0.29147 0.026498-0.053 0.052995-0.18548 0.026497-0.15898 0.052995-0.29147 0.026497-0.15898 0.052995-0.29147 0.052995-0.13249 0.079493-0.13249 0-0.05299 0.21198-0.29147 0.23848-0.23848 0.29147-0.31797 0.31797-0.34447 0.34447-0.76843 0.026497-0.42396 0.21198-0.82142 0.052995-0.10599 0.13249-0.26498 0.079493-0.18548 0.15899-0.37096 0.079493-0.18548 0.13249-0.31797 0.079493-0.15898 0.13249-0.21198 0.026498 0 0.13249-0.13249 0.13249-0.13249 0.23848-0.26498 0.13249-0.15898 0.23848-0.29147 0.10599-0.15898 0.10599-0.21198 0.079493-0.07949 0.21198-0.29147 0.13249-0.21198 0.21198-0.21198 0.026498-0.07949 0.052995-0.29147 0.052995-0.23848 0.10599-0.47696 0.052995-0.26498 0.079493-0.45046 0.052995-0.21198 0.079492-0.26498 0.13249-0.34447 0.37097-0.63594 0.26498-0.31797 0.37097-0.63594 0.10599-0.18548 0.23848-0.52995 0.13249-0.34447 0.13249-0.39746 0-0.0265 0.026498-0.15898 0.026498-0.15898 0.052995-0.31797 0.052995-0.15898 0.079492-0.29147 0.026498-0.15898 0.052995-0.18548 0-0.05299 0.10599-0.21198 0.10599-0.15898 0.21198-0.31797 0.13249-0.18548 0.23848-0.34447t0.13249-0.21198q0.052995-0.053 0.10599-0.26498 0.079492-0.21198 0.13249-0.26498 0.18548-0.42396 0.34447-0.76843 0.18548-0.34447 0.29147-0.68894 0.13249-0.34447 0.18548-0.68894 0.079492-0.37096 0.079492-0.82142 0-0.55645-0.26498-0.90092-0.23848-0.34447-0.60944-0.52995-0.37097-0.21198-0.79493-0.31797-0.42396-0.13249-0.79493-0.26498-0.37097-0.15898-0.63594-0.37097-0.23848-0.23848-0.23848-0.63594 0-0.55645 0.55645-0.79492 0.58295-0.26498 1.2719-0.45046 0.26498-0.07949 0.58295-0.13249 0.31797-0.05299 0.79493-0.13249 0.50345-0.07949 1.2189-0.18548 0.71543-0.10599 1.8018-0.23848h2.6233q0.052995 0.13249 0.13249 0.23848 0.052995 0.10599 0.079492 0.18548 0.052995 0.07949 0.10599 0.13249 0.29147 0.42396 0.45046 0.92741 0.15899 0.47696 0.15899 0.95391 0 0.37096-0.37097 0.74193-0.37097 0.34447-0.55645 0.68894-0.37097 0.71543-0.71543 1.5104-0.31797 0.79493-0.60944 1.6428 0 0.053-0.10599 0.26498-0.079492 0.18548-0.079492 0.23848 0 0.05299-0.026497 0.21198 0 0.13249-0.026498 0.29147-0.026497 0.15898-0.052995 0.29147-0.026497 0.10599-0.026497 0.13249-0.052995 0.05299-0.21198 0.31797-0.15899 0.23848-0.34447 0.52995-0.18548 0.26498-0.37097 0.50345-0.15898 0.23848-0.18548 0.29147-0.052995 0.05299-0.13249 0.21198-0.052995 0.13249-0.079493 0.18548-0.026498 0.10599-0.18548 0.55645-0.15898 0.42396-0.34447 0.92741-0.18548 0.50345-0.37097 0.92741-0.15899 0.42396-0.21198 0.52995 0 0.053-0.079493 0.18548-0.052995 0.10599-0.15899 0.26498-0.079493 0.13249-0.15898 0.29147-0.079493 0.13249-0.10599 0.18548-0.079493 0.07949-0.15898 0.23848-0.079493 0.15898-0.18548 0.34447-0.079492 0.15898-0.15899 0.31797-0.052995 0.13249-0.079492 0.18548-0.026498 0.05299-0.079492 0.23848-0.052995 0.18548-0.13249 0.39746-0.052995 0.21198-0.10599 0.42396-0.026498 0.18548-0.026498 0.23848-0.079492 0.21198-0.31797 0.79492-0.23848 0.55645-0.50345 1.2189-0.26498 0.63594-0.50345 1.2189-0.23848 0.55645-0.31797 0.79492-0.052995 0.0265-0.15899 0.15898-0.079492 0.10599-0.18548 0.23848-0.079492 0.13249-0.15899 0.29147-0.079492 0.13249-0.079492 0.21198 0 0.05299-0.026498 0.21198 0 0.15898-0.026498 0.34447-0.026498 0.18548-0.079492 0.34447-0.026498 0.15898-0.052995 0.21198 0 0.05299-0.15898 0.18548-0.15899 0.13249-0.15899 0.18548-0.052995 0-0.13249 0.21198-0.052995 0.21198-0.10599 0.34447-0.55645 1.9078-1.4574 3.8686-0.90092 1.9608-1.8018 3.6832 0 0.053-0.052995 0.26497-0.026498 0.18548-0.026498 0.23848v0.18548q0 0.23848 0.052995 0.50345 0.052995 0.26498 0.34447 0.26498l0.18548-0.0265q0.15898-0.0265 0.39746-0.053 0.23848-0.053 0.47696-0.10599 0.23848-0.0795 0.39746-0.13249 0.18548-0.053 0.21198-0.0795 0.34447-0.18549 0.63594-0.52995 0.29147-0.34447 0.60944-0.68894 0.31797-0.34447 0.66244-0.58294 0.37097-0.26498 0.82142-0.26498 0.37097 0 0.63594 0.15898 0.29147 0.15898 0.29147 0.52995 0 0.84792-0.60944 1.6163-0.60944 0.76843-1.4839 1.4574-0.84792 0.66244-1.7488 1.2719-0.90092 0.60944-1.4839 1.1129-0.026498 0.0265-0.21198 0.18549-0.15898 0.15898-0.37097 0.37096-0.18548 0.18548-0.37097 0.39746-0.18548 0.21198-0.26498 0.31797-0.052995 0.053-0.23848 0.23848-0.15899 0.15899-0.37097 0.37097-0.18548 0.23847-0.37097 0.42396-0.15898 0.18548-0.18548 0.21198-0.21198 0.23847-0.52995 0.37096t-0.66244 0.18548q-0.31797 0.053-0.66244 0.053-0.34447 0.0265-0.60944 0.0265-0.079492 0-0.26498-0.0265-0.15898 0-0.37097 0-0.18548 0-0.34447-0.0265-0.15898 0-0.21198 0-0.66244-0.39746-0.87442-0.95391-0.23848-0.52995-0.23848-1.3249z"/>
   <path d="m12.856 92.783q0 0.42396 0.10599 0.84792 0.13249 0.42396 0.37096 0.76843 0.23848 0.31797 0.58294 0.52995 0.34447 0.18548 0.79493 0.18548h0.37096q0.053-0.0265 0.26498-0.18548 0.23848-0.18548 0.29147-0.18548 0.07949-0.0265 0.34447-0.07949 0.26498-0.05299 0.55645-0.10599 0.31797-0.07949 0.58294-0.10599 0.26498-0.05299 0.34447-0.05299 0.10599-0.053 0.45046-0.15898 0.34447-0.13249 0.47696-0.26498 0.053-0.0265 0.23848-0.21198 0.18548-0.18548 0.39746-0.39746t0.39746-0.39746q0.18548-0.18548 0.23848-0.23848 0.37096-0.29147 0.66244-0.45046 0.29147-0.15898 0.39746-0.63594 0.13249-0.31797 0.18548-0.71543 0.05299-0.42396 0.05299-0.84792 0-0.05299 0-0.15898 0-0.10599-0.05299-0.10599-0.18548-0.42396-0.55645-0.66244-0.37096-0.26498-0.87442-0.26498-0.95391 0-1.8813 0.18548-0.92741 0.18548-1.7753 0.55645-0.71543 0.29147-1.2189 0.87442-0.50345 0.58294-0.98041 1.1394-0.0265 0.0265-0.15898 0.13249-0.10599 0.10599-0.23848 0.23848-0.13249 0.10599-0.23848 0.21198t-0.10599 0.13249q-0.0265 0.07949-0.0265 0.18548zm-9.8571 13.302v-0.18548q0.18548-0.95391 0.50345-1.8813 0.31797-0.92741 0.68894-1.8283 0.37097-0.92742 0.76843-1.8018 0.39746-0.90091 0.76843-1.8283 0.079492-0.10599 0.29147-0.66244 0.21198-0.58294 0.45046-1.2189 0.26498-0.66244 0.47696-1.2189 0.21198-0.58294 0.26498-0.71543 0.45046-1.1394 0.95391-2.1993 0.50345-1.0599 0.87442-2.2258 0-0.0265 0.026497-0.10599 0.026498-0.10599 0.052995-0.21198 0.026497-0.13249 0.052995-0.23848t0.052995-0.13249q0-0.0265 0.052995-0.18548 0.052995-0.18548 0.13249-0.37096 0.079492-0.21198 0.13249-0.37096 0.052995-0.18548 0.052995-0.23848 0-0.0265 0-0.23848 0.026498-0.21198 0.052995-0.45046 0.026497-0.23848 0.026497-0.45046 0.026497-0.21198 0.052995-0.26498 0.026497-0.0265 0.13249-0.18548 0.13249-0.18548 0.23848-0.37096 0.13249-0.18548 0.23848-0.34447 0.13249-0.15898 0.15898-0.21198 0.37096-0.68894 0.50345-1.2719 0.13249-0.60944 0.42396-1.2984 0.05299-0.0265 0.07949-0.18548 0.05299-0.15898 0.05299-0.21198 0.053-0.05299 0.23848-0.31797 0.21198-0.26498 0.42396-0.55645 0.23848-0.31797 0.42396-0.58294 0.21198-0.29147 0.23848-0.37096 0.18548-0.29147 0.31797-0.84792 0.13249-0.55645 0.18548-1.0069 0.0265-0.0265 0.07949-0.26498 0.07949-0.23848 0.13249-0.50345 0.07949-0.29147 0.13249-0.52995 0.053-0.23848 0.07949-0.29147 0-0.05299 0.053-0.18548 0.07949-0.13249 0.13249-0.18548 0.0265-0.07949 0.18548-0.31797 0.15899-0.23848 0.34447-0.52995 0.18548-0.29147 0.34447-0.52995t0.21198-0.31797q0.29147-0.45046 0.31797-1.0334 0.05299-0.58294 0.05299-1.1129 0-0.68894-0.21198-1.1394-0.21198-0.45046-0.58294-0.79493-0.34447-0.34447-0.82142-0.63594-0.45046-0.31797-0.95391-0.68894-0.053-0.10599-0.23848-0.23848-0.15898-0.13249-0.15898-0.18548-0.053-0.34447 0.21198-0.66244 0.29147-0.34447 0.68894-0.60944 0.39746-0.29147 0.82142-0.47696 0.42396-0.18548 0.68894-0.26498 0.18548-0.0265 0.66244-0.053t0.98041-0.05299q0.52995-0.0265 0.98041-0.05299 0.47696-0.0265 0.63594-0.0265h0.63594q0.87442 0 1.3779 0.18548 0.50345 0.15898 0.74193 0.52995 0.26498 0.34447 0.34447 0.90092 0.07949 0.55645 0.07949 1.3249 0 0.55645-0.15898 1.2454-0.15898 0.66244-0.45046 1.1924-0.0265 0.0265-0.13249 0.18548-0.07949 0.15898-0.21198 0.34447-0.10599 0.15898-0.23848 0.31797-0.10599 0.15898-0.15898 0.18548-0.39746 0.79492-0.60944 1.6428-0.18548 0.84792-0.47696 1.6693 0 0.05299-0.05299 0.15899-0.05299 0.10599-0.10599 0.23848-0.053 0.10599-0.10599 0.21198t-0.05299 0.13249q-0.0265 0.0265-0.07949 0.18548-0.053 0.15898-0.13249 0.34447-0.07949 0.18548-0.13249 0.34447-0.053 0.15898-0.07949 0.21198 0 0.07949-0.05299 0.21198-0.05299 0.10599-0.13249 0.15898 0 0.053-0.10599 0.15898-0.10599 0.07949-0.23848 0.21198-0.10599 0.10599-0.21198 0.21198-0.10599 0.07949-0.15898 0.10599-0.31797 0.45046-0.34447 1.0334 0 0.58294-0.15898 1.0334-0.0265 0.053-0.10599 0.21198-0.07949 0.15898-0.18548 0.34447-0.10599 0.18548-0.21198 0.34447-0.07949 0.15898-0.10599 0.18548-0.0265 0.05299-0.07949 0.26498-0.0265 0.18548-0.07949 0.39746t-0.10599 0.39746q-0.0265 0.18548-0.053 0.23848-0.0265 0.0265-0.10599 0.21198-0.07949 0.18548-0.18548 0.42396-0.07949 0.21198-0.18548 0.39746-0.07949 0.18548-0.10599 0.23848v0.10599q0 0.34447 0.23848 0.39746 0.23848 0.05299 0.52995 0.05299 0.37096 0 0.66244-0.10599 0.29147-0.13249 0.55645-0.31797 0.26498-0.18548 0.52995-0.34447 0.29147-0.18548 0.63594-0.31797 1.0864-0.39746 2.1993-0.66244 1.1129-0.26498 2.2788-0.26498 1.1129 0 1.8018 0.60944 0.68894 0.60944 1.0599 1.5369 0.0265 0.13249 0.10599 0.42396 0.07949 0.29147 0.07949 0.37097 0 0.13249-0.0265 0.50345-0.0265 0.34447-0.053 0.76843-0.0265 0.39746-0.07949 0.76843-0.0265 0.37096-0.0265 0.52995-0.55645 0.82142-1.0069 1.7223-0.45046 0.87442-1.2454 1.5634-0.05299 0.07949-0.26498 0.21198-0.18548 0.10599-0.23848 0.15898-0.05299 0-0.29147 0.10599-0.21198 0.07949-0.26498 0.07949-0.07949 0.0265-0.29147 0.18548-0.21198 0.15898-0.47696 0.34447-0.23848 0.15898-0.45046 0.34447-0.21198 0.15898-0.29147 0.18548-0.34447 0.26498-0.74193 0.42396-0.39746 0.13249-0.82142 0.21198-0.42396 0.07949-0.84792 0.13249-0.42396 0.053-0.84792 0.13249-0.07949 0.053-0.31797 0.10599-0.23848 0.05299-0.52995 0.10599-0.26498 0.05299-0.50345 0.13249-0.23848 0.05299-0.29147 0.07949-0.07949 0.05299-0.26498 0.21198-0.15899 0.13249-0.34447 0.31797-0.18548 0.15898-0.34447 0.31797-0.13249 0.15898-0.15898 0.23848v2.5703q0.05299 0.52995 0.42396 0.82142 0.37097 0.26498 0.68894 0.60945 0.15898 0.21198 0.37096 0.52995 0.23848 0.29147 0.50345 0.58294 0.26498 0.29148 0.52995 0.50346 0.29147 0.21198 0.55645 0.21198 0.37096 0 0.66244-0.0795 0.29147-0.10599 0.55645-0.18548 0.26498-0.10599 0.50345-0.18548 0.26498-0.10599 0.58295-0.10599 0.60944 0 0.82142 0.45046 0.23848 0.42396 0.23848 0.9804v0.45046q-0.18548 0.79493-0.50345 1.3779-0.31797 0.55645-1.0069 0.95391-0.07949 0.0795-0.23848 0.18548-0.13249 0.0795-0.29147 0.18549-0.13249 0.10599-0.26498 0.15898-0.10599 0.0795-0.13249 0.0795-0.29147-0.0265-0.55645-0.0795-0.23848-0.0265-0.47696-0.053-0.23848-0.0265-0.39746-0.053-0.60944-0.0795-1.0864-0.10599-0.45046-0.0265-0.84792-0.0795-0.39746-0.053-0.82142-0.21198-0.39746-0.15899-0.90092-0.52995-0.23848-0.15899-0.55645-0.60944-0.31797-0.47696-0.68894-1.0599-0.34447-0.60945-0.74193-1.2454-0.37096-0.63594-0.71543-1.1659-0.34447-0.52995-0.63594-0.87442-0.29147-0.34446-0.50345-0.34446-0.39746 0-0.68894 0.42396-0.29147 0.39746-0.52995 0.95391-0.21198 0.52995-0.37097 1.0864-0.15898 0.52995-0.26498 0.79492-0.026498 0.053-0.15899 0.29147-0.10599 0.21198-0.23848 0.47696-0.10599 0.23848-0.21198 0.45046-0.10599 0.21198-0.10599 0.29147-0.29147 0.60944-0.50345 1.0599-0.18548 0.42396-0.45046 0.74193t-0.68894 0.52995q-0.39746 0.23848-1.1129 0.39746h-0.23847q-0.21198 0-0.31797-0.0795-0.079492-0.053-0.37097-0.26498-0.52995-0.50345-0.60944-0.92741-0.10599-0.42396-0.10599-1.1394z"/>
   <path d="m25.77 106.22v-0.63594q0-0.053 0.10599-0.21198 0.07949-0.15899 0.07949-0.21198 0.0265-0.0265 0.05299-0.13249 0-0.13249 0.0265-0.29147 0.0265-0.15899 0.05299-0.29148 0-0.13248 0-0.18548 0.07949-0.26497 0.26498-0.52995 0.18548-0.26497 0.37096-0.50345 0.21198-0.26498 0.39746-0.50345 0.18548-0.23848 0.31797-0.50346 0-0.053 0.05299-0.18548 0.07949-0.15898 0.13249-0.31797 0.05299-0.18548 0.10599-0.31797 0.05299-0.15899 0.05299-0.21198 0.0265-0.053 0.05299-0.26498 0.0265-0.21198 0.053-0.42396 0.0265-0.23847 0.0265-0.42396 0.0265-0.18548 0.0265-0.23847 0.05299-0.07949 0.21198-0.39746 0.18548-0.31797 0.37096-0.68894 0.18548-0.37096 0.34447-0.68894 0.15898-0.34447 0.21198-0.42396 0-0.0265 0.053-0.15898 0.05299-0.13249 0.10599-0.29147 0.07949-0.18548 0.13249-0.34447 0.053-0.15898 0.07949-0.23848 0.18548-0.74193 0.26498-1.2189 0.07949-0.47696 0.45046-1.0334 0.0265-0.05299 0.13249-0.18548 0.10599-0.13249 0.23848-0.29147 0.13249-0.15898 0.23848-0.26498 0.10599-0.13249 0.13249-0.18548 0.34447-0.52995 0.42396-1.2189 0.10599-0.71543 0.37096-1.3514 0-0.05299 0.05299-0.26498 0.07949-0.21198 0.15898-0.45046 0.10599-0.26498 0.18548-0.47696 0.07949-0.21198 0.10599-0.26498 0.0265-0.05299 0.07949-0.26498 0.07949-0.23848 0.07949-0.29147 0.0265-0.053 0.05299-0.18548 0.0265-0.15898 0.053-0.29147 0.0265-0.15898 0.05299-0.29147 0.053-0.13249 0.07949-0.13249 0-0.05299 0.21198-0.29147 0.23848-0.23848 0.29147-0.31797 0.31797-0.34447 0.34447-0.76843 0.0265-0.42396 0.21198-0.82142 0.053-0.10599 0.13249-0.26498 0.07949-0.18548 0.15898-0.37096 0.07949-0.18548 0.13249-0.31797 0.07949-0.15898 0.13249-0.21198 0.0265 0 0.13249-0.13249 0.13249-0.13249 0.23848-0.26498 0.13249-0.15898 0.23848-0.29147 0.10599-0.15898 0.10599-0.21198 0.07949-0.07949 0.21198-0.29147 0.13249-0.21198 0.21198-0.21198 0.0265-0.07949 0.053-0.29147 0.05299-0.23848 0.10599-0.47696 0.05299-0.26498 0.07949-0.45046 0.053-0.21198 0.07949-0.26498 0.13249-0.34447 0.37096-0.63594 0.26498-0.31797 0.37096-0.63594 0.10599-0.18548 0.23848-0.52995 0.13249-0.34447 0.13249-0.39746 0-0.0265 0.0265-0.15898 0.0265-0.15898 0.053-0.31797 0.05299-0.15898 0.07949-0.29147 0.0265-0.15898 0.05299-0.18548 0-0.05299 0.10599-0.21198 0.10599-0.15898 0.21198-0.31797 0.13249-0.18548 0.23848-0.34447t0.13249-0.21198q0.053-0.053 0.10599-0.26498 0.07949-0.21198 0.13249-0.26498 0.18548-0.42396 0.34447-0.76843 0.18548-0.34447 0.29147-0.68894 0.13249-0.34447 0.18548-0.68894 0.07949-0.37096 0.07949-0.82142 0-0.55645-0.26498-0.90092-0.23848-0.34447-0.60944-0.52995-0.37096-0.21198-0.79492-0.31797-0.42396-0.13249-0.79493-0.26498-0.37096-0.15898-0.63594-0.37097-0.23848-0.23848-0.23848-0.63594 0-0.55645 0.55645-0.79492 0.58295-0.26498 1.2719-0.45046 0.26498-0.07949 0.58294-0.13249 0.31797-0.05299 0.79492-0.13249 0.50345-0.07949 1.2189-0.18548 0.71543-0.10599 1.8018-0.23848h2.6233q0.053 0.13249 0.13249 0.23848 0.05299 0.10599 0.07949 0.18548 0.05299 0.07949 0.10599 0.13249 0.29147 0.42396 0.45046 0.92741 0.15899 0.47696 0.15899 0.95391 0 0.37096-0.37097 0.74193-0.37096 0.34447-0.55645 0.68894-0.37096 0.71543-0.71543 1.5104-0.31797 0.79493-0.60944 1.6428 0 0.053-0.10599 0.26498-0.07949 0.18548-0.07949 0.23848 0 0.05299-0.0265 0.21198 0 0.13249-0.0265 0.29147t-0.05299 0.29147q-0.0265 0.10599-0.0265 0.13249-0.053 0.05299-0.21198 0.31797-0.15898 0.23848-0.34447 0.52995-0.18548 0.26498-0.37096 0.50345-0.15898 0.23848-0.18548 0.29147-0.05299 0.05299-0.13249 0.21198-0.053 0.13249-0.07949 0.18548-0.0265 0.10599-0.18548 0.55645-0.15898 0.42396-0.34447 0.92741-0.18548 0.50345-0.37096 0.92741-0.15898 0.42396-0.21198 0.52995 0 0.053-0.07949 0.18548-0.053 0.10599-0.15898 0.26498-0.07949 0.13249-0.15898 0.29147-0.07949 0.13249-0.10599 0.18548-0.07949 0.07949-0.15898 0.23848-0.07949 0.15898-0.18548 0.34447-0.07949 0.15898-0.15898 0.31797-0.05299 0.13249-0.07949 0.18548-0.0265 0.05299-0.07949 0.23848-0.05299 0.18548-0.13249 0.39746-0.053 0.21198-0.10599 0.42396-0.0265 0.18548-0.0265 0.23848-0.07949 0.21198-0.31797 0.79492-0.23848 0.55645-0.50345 1.2189-0.26498 0.63594-0.50345 1.2189-0.23848 0.55645-0.31797 0.79492-0.05299 0.0265-0.15898 0.15898-0.07949 0.10599-0.18548 0.23848-0.07949 0.13249-0.15898 0.29147-0.07949 0.13249-0.07949 0.21198 0 0.05299-0.0265 0.21198 0 0.15898-0.0265 0.34447-0.0265 0.18548-0.07949 0.34447-0.0265 0.15898-0.053 0.21198 0 0.05299-0.15898 0.18548-0.15898 0.13249-0.15898 0.18548-0.053 0-0.13249 0.21198-0.05299 0.21198-0.10599 0.34447-0.55645 1.9078-1.4574 3.8686-0.90092 1.9608-1.8018 3.6832 0 0.053-0.05299 0.26497-0.0265 0.18548-0.0265 0.23848v0.18548q0 0.23848 0.053 0.50345 0.053 0.26498 0.34447 0.26498l0.18548-0.0265q0.15898-0.0265 0.39746-0.053 0.23848-0.053 0.47696-0.10599 0.23848-0.0795 0.39746-0.13249 0.18548-0.053 0.21198-0.0795 0.34447-0.18549 0.63594-0.52995 0.29147-0.34447 0.60944-0.68894 0.31797-0.34447 0.66244-0.58294 0.37096-0.26498 0.82142-0.26498 0.37096 0 0.63594 0.15898 0.29147 0.15898 0.29147 0.52995 0 0.84792-0.60944 1.6163-0.60944 0.76843-1.4839 1.4574-0.84792 0.66244-1.7488 1.2719-0.90092 0.60944-1.4839 1.1129-0.0265 0.0265-0.21198 0.18549-0.15898 0.15898-0.37096 0.37096-0.18548 0.18548-0.37096 0.39746-0.18548 0.21198-0.26498 0.31797-0.053 0.053-0.23848 0.23848-0.15898 0.15899-0.37096 0.37097-0.18548 0.23847-0.37096 0.42396-0.15898 0.18548-0.18548 0.21198-0.21198 0.23847-0.52995 0.37096t-0.66244 0.18548q-0.31797 0.053-0.66244 0.053-0.34447 0.0265-0.60944 0.0265-0.07949 0-0.26498-0.0265-0.15898 0-0.37096 0-0.18548 0-0.34447-0.0265-0.15898 0-0.21198 0-0.66244-0.39746-0.87442-0.95391-0.23848-0.52995-0.23848-1.3249z"/>
   <path d="m46.289 100.52v2.7557q0 0.13249 0.15898 0.18549t0.34447 0.10599q0.21198 0.0265 0.39746 0.0265 0.21198 0 0.29147 0 0.58295 0 1.0599-0.21198 0.47696-0.23847 0.84792-0.58294 0.39746-0.37097 0.71543-0.82142 0.31797-0.47696 0.58294-0.95392l0.18548-0.31797q0.63594-0.76842 1.3514-1.5104 0.74193-0.74193 1.1924-1.6428 0.0265-0.053 0.23848-0.50345 0.21198-0.47696 0.47696-1.0864 0.26498-0.60944 0.52995-1.2189 0.29147-0.63594 0.45046-1.0334 0.053-0.07949 0.10599-0.29147 0.053-0.21198 0.053-0.26498v-1.6958q0-0.0265 0.05299-0.23848 0.053-0.21198 0.13249-0.45046 0.07949-0.26498 0.13249-0.47696 0.053-0.21198 0.053-0.26498 0.0265-0.0265 0.0265-0.18548 0-0.15898 0-0.26498 0-0.31797-0.10599-0.74193-0.07949-0.45046-0.29147-0.84792-0.18548-0.39746-0.50345-0.66244-0.29147-0.26498-0.68894-0.26498-0.15898 0-0.39746 0.10599-0.21198 0.10599-0.42396 0.26498-0.21198 0.15898-0.42396 0.31797t-0.31797 0.26498q-0.13249 0.15898-0.52995 0.55645-0.39746 0.37097-0.84792 0.82142-0.42396 0.42396-0.82142 0.82142t-0.55645 0.55645q-0.18548 0.42396-0.31797 0.95391-0.13249 0.50345-0.42396 0.87442 0 0.053-0.13249 0.18548-0.10599 0.13249-0.23848 0.29147-0.10599 0.13249-0.23848 0.29147-0.10599 0.13249-0.10599 0.15898-0.0265 0.053-0.10599 0.15898-0.053 0.07949-0.10599 0.15898l-0.15898 0.21198q-0.34447 0.76843-0.45046 1.5634-0.07949 0.79492-0.29147 1.5634 0 0.07949-0.15898 0.37096-0.15898 0.29147-0.15898 0.42396-0.053 0.05299-0.13249 0.26498-0.053 0.18548-0.10599 0.23848-0.10599 0.52995-0.13249 1.0334 0 0.47696-0.21198 1.0069zm-3.4977-1.4044q0-0.74193 0.13249-1.4309 0.13249-0.71543 0.29147-1.3779 0.15899-0.68894 0.29147-1.3779 0.15898-0.68894 0.21198-1.4044 0.66244-1.4574 1.3779-2.8087 0.71543-1.3779 1.5898-2.5703t1.9873-2.1728q1.1129-0.98041 2.5968-1.6693 0.0265-0.0265 0.23848-0.13249 0.21198-0.10599 0.45046-0.21198 0.23848-0.13249 0.45046-0.23848t0.29147-0.10599q0.053-0.05299 0.39746-0.05299 0.34447 0 0.50345 0 1.1924 0 2.0138 0.23848 0.84792 0.23848 1.4309 0.76843 0.58295 0.50345 0.98041 1.2984 0.42396 0.79493 0.76843 1.9078 0.0265 0.13249 0.07949 0.37096 0.053 0.21198 0.10599 0.42396 0.053 0.21198 0.07949 0.37097 0.05299 0.15898 0.05299 0.18548 0.0265 0.05299 0.053 0.23848 0.0265 0.18548 0.053 0.39746 0.05299 0.21198 0.07949 0.39746t0.05299 0.23848q0 0.053 0.07949 0.29147 0.10599 0.21198 0.10599 0.26498 0 0.0265-0.0265 0.15898-0.0265 0.13249-0.07949 0.29147-0.0265 0.15898-0.053 0.29147-0.0265 0.13249-0.0265 0.15898-0.13249 0.68894-0.13249 1.3779t-0.10599 1.3779q0 0.05299-0.10599 0.21198-0.05299 0.07949-0.07949 0.15898-0.29147 0.84792-0.47696 1.5369-0.15898 0.66244-0.45046 1.5899 0 0.053-0.0265 0.15898-0.0265 0.07949-0.05299 0.15898l-0.053 0.21198q-0.0265 0.053-0.10599 0.15898-0.053 0.10599-0.10599 0.23848-0.053 0.10599-0.10599 0.21198t-0.05299 0.13249q-0.0265 0.07949-0.10599 0.39746-0.05299 0.29147-0.10599 0.34447-0.05299 0.0795-0.23848 0.26497-0.15898 0.18549-0.39746 0.39747-0.21198 0.21198-0.39746 0.39746t-0.21198 0.26497q-0.053 0-0.21198 0.23848-0.15898 0.21198-0.18548 0.26498-0.07949 0.0795-0.34447 0.37096-0.26498 0.26498-0.58294 0.58295-0.31797 0.29147-0.58295 0.55645-0.26498 0.23847-0.34447 0.31797 0 0.053-0.15898 0.29147-0.13249 0.23848-0.21198 0.31797-0.34447 0.37096-0.66244 0.68893-0.29147 0.29148-0.60944 0.55645-0.31797 0.26498-0.68894 0.55645-0.34447 0.26497-0.76843 0.58294-0.37096 0.23848-0.84792 0.31797-0.47696 0.053-0.95391 0.053h-2.4113q-0.26498-0.13249-0.71543-0.42396-0.45046-0.29147-0.92741-0.63594-0.45046-0.37097-0.82142-0.71543-0.37096-0.37097-0.47696-0.66244-0.0265-0.0265-0.053-0.15899-0.0265-0.15898-0.05299-0.34446-0.0265-0.21198-0.053-0.37097-0.0265-0.18548-0.0265-0.23848-0.23848-1.1129-0.39746-2.2258-0.15898-1.1129-0.15898-2.2523z"/>
   <path d="m64.304 104.71v-0.10599q0-0.0265 0.0265-0.13249t0.05299-0.21198q0.053-0.13249 0.07949-0.21198 0.0265-0.10599 0.0265-0.13249 0-0.053 0-0.26497 0.0265-0.21198 0.0265-0.45046t-0.0265-0.45046q0-0.21198 0-0.34446 0.34447-0.26498 0.47696-0.55645 0.13249-0.31797 0.18548-0.63594 0.053-0.34447 0.07949-0.68894 0.0265-0.34447 0.15899-0.68893 0.42396-0.95391 0.74193-1.9078 0.31797-0.95391 0.74193-1.9343 0-0.0265 0.07949-0.15898 0.07949-0.15898 0.18548-0.31797 0.10599-0.15898 0.18548-0.29147 0.10599-0.13249 0.13249-0.13249 0.15898-0.39746 0.15898-0.68894 0.0265-0.29147 0.05299-0.55645 0.0265-0.26498 0.15898-0.52995 0.13249-0.26498 0.55645-0.60944v-0.66244q0-0.18548-0.0265-0.47696-0.0265-0.31797-0.10599-0.58294-0.07949-0.29147-0.23848-0.50345-0.15898-0.21198-0.42396-0.21198h-0.13249q-0.60944 0.21198-1.0864 0.39746-0.45046 0.18548-1.1129 0.18548h-0.21198q-0.13249 0-0.29147-0.0265-0.13249-0.0265-0.26498-0.15898 0-0.053-0.0265-0.21198-0.0265-0.15898-0.07949-0.34447-0.0265-0.18548-0.05299-0.34447-0.0265-0.15898-0.0265-0.23848v-0.18548q0-0.55645 0.37096-1.1924 0.37096-0.63594 0.87442-1.2719 0.50345-0.63594 1.0334-1.1924 0.55645-0.55645 0.87442-0.92741 0-0.0265 0.13249-0.26498 0.15898-0.23848 0.18548-0.26498 0.68894-0.60944 1.4839-0.95391 0.79492-0.34447 1.6958-0.34447 0.29147 0 0.50345 0.0265 0.23848 0.0265 0.58294 0.15899 0.10599 0.0265 0.26498 0.10599 0.18548 0.07949 0.34447 0.18548 0.18548 0.07949 0.29147 0.15898 0.13249 0.07949 0.15898 0.10599 0.0265 0.0265 0.05299 0.15898 0.05299 0.13249 0.07949 0.31797 0.0265 0.15898 0.0265 0.34447 0.0265 0.15898 0.0265 0.26498v2.4378q0 0.05299 0.07949 0.31797 0.10599 0.26498 0.10599 0.37096 0.05299 0.05299 0.10599 0.18548 0.07949 0.13249 0.10599 0.18548h0.18548q0.45046-0.23848 0.76843-0.45046 0.34447-0.23848 0.71543-0.60944 0-0.05299 0.13249-0.29147 0.15898-0.26498 0.23848-0.29147 0.15898-0.21198 0.39746-0.37096 0.26498-0.15898 0.50345-0.37097 0.34447-0.29147 0.84792-0.68894 0.50345-0.42396 0.79492-0.82142 0.21198-0.23848 0.31797-0.45046 0.13249-0.23848 0.42396-0.47696 0.45046-0.29147 1.0864-0.50345 0.66244-0.23848 1.2189-0.23848 0.34447 0 0.60944 0.21198 0.29147 0.21198 0.58295 0.39746 0.34447 0.21198 0.66244 0.42396 0.31797 0.18548 0.58294 0.45046 0.26498 0.23848 0.42396 0.55645 0.15898 0.31797 0.15898 0.76843 0 0.42396-0.15898 0.95391-0.13249 0.50345-0.42396 0.95391-0.29147 0.42396-0.71543 0.74193-0.39746 0.29147-0.90092 0.29147-0.39746 0-0.74193-0.26498-0.31797-0.26498-0.63594-0.55645-0.29147-0.31797-0.60944-0.58294t-0.68894-0.26498q-0.29147 0-0.63594 0.18548-0.34447 0.15898-0.55645 0.37096-0.10599 0.07949-0.37096 0.34447-0.26498 0.26498-0.55645 0.55645-0.29147 0.29147-0.55645 0.55645-0.26498 0.26498-0.34447 0.37096-0.15898 0.60944-0.39746 0.95391-0.23848 0.34447-0.52995 0.60944t-0.63594 0.52995q-0.31797 0.23848-0.66244 0.66244 0 0.07949-0.10599 0.21198-0.07949 0.10599-0.07949 0.15898-0.0265 0.07949-0.07949 0.39746-0.05299 0.29147-0.13249 0.63594-0.05299 0.34447-0.10599 0.66244-0.0265 0.29147-0.0265 0.37096-0.0265 0.053-0.10599 0.26498-0.05299 0.18548-0.10599 0.23848-0.0265 0.05299-0.13249 0.23848-0.10599 0.15898-0.23848 0.37096-0.10599 0.18548-0.21198 0.34447-0.07949 0.15899-0.10599 0.18548-0.07949 0.07949-0.15898 0.21198-0.07949 0.13249-0.18548 0.29147-0.07949 0.13249-0.15898 0.26498-0.07949 0.13249-0.10599 0.15898-0.10599 0.18548-0.21198 0.50345-0.10599 0.31797-0.23848 0.66244-0.10599 0.34447-0.26498 0.63594-0.13249 0.29147-0.31797 0.39746 0 0.07949-0.0265 0.29147-0.0265 0.21198-0.07949 0.45046-0.0265 0.21198-0.05299 0.42396-0.0265 0.21198-0.0265 0.29148-0.05299 0.053-0.21198 0.37096-0.15898 0.29147-0.21198 0.37097-0.29147 0.60944-0.47696 1.2984-0.15898 0.66243-0.42396 1.2984-0.0265 0.0265-0.10599 0.15899-0.07949 0.10599-0.18548 0.26497-0.10599 0.15899-0.18548 0.31797-0.07949 0.13249-0.07949 0.18549-0.10599 0.18548-0.31797 0.63594-0.21198 0.42396-0.37096 0.60944-0.05299 0-0.26498 0.15898-0.21198 0.15899-0.47696 0.37097t-0.52995 0.45046q-0.26498 0.21198-0.42396 0.34446-0.29147 0.21198-0.37096 0.26498-0.07949 0.053-0.37096 0.053-0.42396 0-0.74193-0.31797-0.29147-0.31797-0.58294-0.60944 0-0.0265-0.07949-0.13249-0.05299-0.13248-0.05299-0.18548t-0.0265-0.26497q-0.0265-0.21198-0.05299-0.45046-0.0265-0.26498-0.05299-0.52995-0.0265-0.26498-0.05299-0.39746z"/>
   <path d="m90.48 90.716v0.13249q0 0.18548 0.10599 0.37096 0.13249 0.18548 0.34447 0.18548h0.07949q0.05299-0.0265 0.21198-0.10599 0.18548-0.07949 0.34447-0.15898 0.18548-0.10599 0.34447-0.18548 0.15898-0.07949 0.21198-0.10599 0.37096-0.15898 0.68894-0.26498t0.63594-0.21198q0.31797-0.13249 0.66244-0.26498 0.34447-0.13249 0.76843-0.34447 0.10599-0.07949 0.31797-0.23848 0.23848-0.15898 0.45046-0.31797 0.23848-0.18548 0.39746-0.34447t0.15898-0.29147v-0.13249q-0.07949-0.07949-0.21198-0.21198-0.13249-0.15898-0.29147-0.34447-0.13249-0.18548-0.26498-0.31797-0.13249-0.15898-0.15898-0.23848-0.05299-0.05299-0.13249-0.07949-0.05299-0.05299-0.07949-0.05299-0.07949 0-0.34447-0.0265-0.23848-0.05299-0.31797-0.05299-0.42396 0-0.98041 0.23848-0.52995 0.21198-1.0599 0.58294-0.52995 0.34447-0.95391 0.76843t-0.60944 0.82142q-0.13249 0.37096-0.23848 0.60944-0.07949 0.23848-0.07949 0.58295zm-8.3467 14.494q-0.0265-0.26497-0.07949-0.95391-0.0265-0.68893-0.07949-1.4309-0.05299-0.76843-0.10599-1.4574-0.053-0.68893-0.053-0.98041v-0.68893q0-0.60944 0.13249-1.0864 0.15898-0.50345 0.39746-1.1129 0-0.05299 0.07949-0.26498 0.07949-0.21198 0.10599-0.31797 0.18548-0.66244 0.45046-1.0334 0.26498-0.39746 0.47696-0.98041 0.0265-0.0265 0.07949-0.18548 0.05299-0.18548 0.10599-0.37097 0.07949-0.21198 0.13249-0.37096 0.05299-0.18548 0.05299-0.23848 0.0265-0.0265 0.10599-0.18548 0.07949-0.15898 0.15898-0.31797 0.10599-0.18548 0.18548-0.34447 0.07949-0.15898 0.10599-0.18548 0-0.0265 0.0265-0.15898 0.053-0.15898 0.07949-0.31797 0.0265-0.15898 0.05299-0.29147 0.0265-0.13249 0.0265-0.15898 0.0265-0.05299 0.15898-0.26498 0.13249-0.21198 0.23848-0.31797 0.0265-0.0265 0.23848-0.23848 0.21198-0.23848 0.45046-0.47696 0.26498-0.26498 0.47696-0.47696t0.26498-0.23848q0.07949-0.07949 0.21198-0.23848 0.15898-0.18548 0.29147-0.34447 0.15898-0.18548 0.26498-0.31797 0.13249-0.15898 0.13249-0.23848 0.053-0.05299 0.18548-0.34447 0.15898-0.31797 0.23848-0.34447 0-0.05299 0.13249-0.10599 0.13249-0.07949 0.18548-0.13249 0.05299 0 0.29147-0.053 0.23848-0.07949 0.29147-0.13249 0.07949-0.05299 0.15898-0.13249l0.18548-0.18548q0.05299-0.05299 0.15898-0.18548 0.10599-0.15898 0.21198-0.31797 0.13249-0.15898 0.23848-0.26498 0.10599-0.13249 0.10599-0.15898 0.29147-0.23848 0.84792-0.50345 0.55645-0.29147 0.84792-0.39746 0-0.07949 0.05299-0.13249 0.07949-0.053 0.07949-0.10599 0.84792-0.66244 1.8548-0.87442 1.0334-0.21198 2.0668-0.21198 0.37096 0 1.0334 0.07949 0.68894 0.07949 1.4044 0.26498 0.71543 0.15898 1.2984 0.45046 0.60944 0.26498 0.84792 0.66244 0.053 0.05299 0.10599 0.37096 0.053 0.29147 0.053 0.39746 0.0265 0.0265 0.0795 0.15898 0.053 0.10599 0.13249 0.26498 0.0795 0.15898 0.13249 0.31797 0.053 0.13249 0.0795 0.18548v0.31797q-0.13249 0.68894-0.21198 1.4309-0.0795 0.71543-0.37096 1.3249 0 0.10599-0.15899 0.29147-0.13249 0.18548-0.18548 0.29147-0.37096 0.45046-0.74193 0.90092-0.37096 0.45046-0.90092 0.76843-0.07949 0.0265-0.34447 0.15898-0.26498 0.13249-0.58294 0.29147-0.31797 0.13249-0.58295 0.26498-0.26498 0.13249-0.31797 0.18548-0.37096 0.18548-0.76843 0.29147-0.39746 0.10599-0.82142 0.18548-0.39746 0.07949-0.79492 0.18548-0.39746 0.10599-0.76843 0.26498h-3.8686q-0.47696 0-0.87442 0.13249-0.37097 0.10599-0.58295 0.60944-0.05299 0.05299-0.18548 0.37096-0.10599 0.29147-0.23848 0.63594-0.10599 0.34447-0.23848 0.63594-0.10599 0.29147-0.13249 0.37096-0.0265 0.07949-0.13249 0.26498-0.07949 0.18548-0.21198 0.39746-0.10599 0.21198-0.21198 0.39746-0.10599 0.18548-0.15898 0.26498v1.2454q0 0.42396 0.05299 1.0864 0.07949 0.66244 0.29147 1.2984 0.21198 0.60944 0.60944 1.0599 0.39746 0.45046 1.0599 0.45046 0.29147 0 0.52995-0.10599 0.26498-0.13249 0.60944-0.13249h0.50345q0.05299 0.053 0.29147 0.15898 0.23848 0.0795 0.31797 0.0795 0.15898-0.0795 0.42396-0.39747 0.26498-0.31797 0.29147-0.52995l2.0138-2.0668h0.29147q0.42396 0 0.63594 0.39746 0.23848 0.37096 0.23848 0.74193 0 0.79493-0.42396 1.2984t-0.90092 1.0599q-0.05299 0.053-0.21198 0.29147-0.15898 0.23848-0.15898 0.29147-0.23848 0.34447-0.66244 0.55645-0.39746 0.18548-0.63594 0.55645-0.05299 0.0265-0.18548 0.26497-0.13249 0.23848-0.18548 0.26498-0.0265 0.0265-0.18548 0.0795-0.15898 0.0265-0.37096 0.10599-0.18548 0.053-0.37096 0.10599-0.15898 0.053-0.21198 0.0795-0.45046 0.21198-0.84792 0.47696-0.39746 0.23848-0.82142 0.45046-0.39746 0.23847-0.84792 0.39746-0.42396 0.15898-0.95391 0.15898-0.50345 0-1.1394-0.31797-0.63594-0.29147-1.2719-0.71543-0.60944-0.45046-1.1129-0.95391-0.50345-0.52995-0.74193-0.95391z"/>
  </g>
 </g>
</svg>
